<svg width="19" height="19" viewBox="0 0 19 19" fill="none" xmlns="http://www.w3.org/2000/svg">
<path d="M12.283 18.7482C10.4012 18.7482 8.52719 18.7482 6.64546 18.7482C6.53026 18.7405 6.41505 18.7251 6.29984 18.7174C5.54715 18.7021 4.80214 18.6714 4.06481 18.487C2.52102 18.1107 1.37662 17.2351 0.693054 15.7835C0.270625 14.8925 0.140056 13.9325 0.132376 12.9571C0.109334 10.9294 0.0862924 8.89405 0.101653 6.86639C0.109334 6.01385 0.163098 5.15363 0.285986 4.31646C0.477999 3.01077 1.1078 1.92013 2.18308 1.11368C3.10474 0.43011 4.16465 0.153611 5.29369 0.0768053C5.73916 0.0460832 6.19231 0.0230416 6.63778 0C8.50415 0 10.3705 0 12.2369 0C12.6747 0.0230416 13.1125 0.0460832 13.5503 0.0768053C14.3183 0.122888 15.0633 0.253457 15.7699 0.568359C17.4904 1.34409 18.4044 2.72659 18.6808 4.55455C18.7269 4.87713 18.7577 5.2074 18.7961 5.52998C18.7961 8.04151 18.7961 10.5607 18.7961 13.0723C18.7884 13.1414 18.773 13.2028 18.7653 13.272C18.7269 13.6406 18.7039 14.017 18.6424 14.3779C18.4428 15.5531 17.9435 16.5746 17.0372 17.3734C16.0618 18.2413 14.879 18.5869 13.604 18.6714C13.1662 18.7021 12.7208 18.7251 12.283 18.7482ZM9.46422 17.0892C9.46422 17.0815 9.46422 17.0661 9.46422 17.0585C9.95577 17.0585 10.455 17.0738 10.9466 17.0585C12.0065 17.02 13.0741 17.0277 14.1263 16.9048C15.5088 16.7359 16.4612 15.9525 16.8759 14.593C17.0679 13.9709 17.0987 13.318 17.1063 12.6729C17.1294 11.0139 17.1524 9.35488 17.1371 7.69589C17.1294 6.7051 17.1063 5.71431 16.9911 4.7312C16.8145 3.22582 15.8621 2.20431 14.3798 1.91245C13.7346 1.78188 13.0587 1.74348 12.3982 1.7358C10.7622 1.70508 9.12627 1.71276 7.49032 1.72044C6.5533 1.72044 5.60859 1.71276 4.67925 1.87405C3.25835 2.12751 2.28292 3.02613 1.99106 4.43934C1.86817 5.04611 1.82977 5.68359 1.81441 6.30571C1.78369 7.8111 1.76833 9.31648 1.78369 10.8295C1.79905 11.8818 1.82977 12.9417 1.92194 13.9862C2.0141 14.9617 2.45958 15.7758 3.28907 16.3518C3.92656 16.7896 4.65621 16.9586 5.41658 16.9893C6.76835 17.0354 8.11244 17.0585 9.46422 17.0892Z" fill="white"/>
<path d="M9.47183 14.1934C6.82205 14.2011 4.65614 12.0428 4.64846 9.38538C4.64078 6.7356 6.80669 4.56969 9.46415 4.56201C12.1216 4.56201 14.2568 6.6972 14.2798 9.36234C14.2875 12.0121 12.1293 14.1857 9.47183 14.1934ZM6.33817 9.37002C6.33817 11.0981 7.72067 12.4883 9.44879 12.496C11.1769 12.5037 12.5671 11.1212 12.5748 9.38538C12.5824 7.64958 11.1923 6.25173 9.45647 6.25173C7.72835 6.25173 6.33817 7.6419 6.33817 9.37002Z" fill="white"/>
<path d="M15.5855 4.3623C15.5855 4.98442 15.0939 5.48366 14.4795 5.49134C13.8574 5.49902 13.3428 4.9921 13.3428 4.36998C13.3428 3.74786 13.8343 3.24862 14.4488 3.24862C15.0786 3.24094 15.5855 3.7325 15.5855 4.3623Z" fill="white"/>
</svg>
