<svg width="16" height="16" viewBox="0 0 16 16" fill="none" xmlns="http://www.w3.org/2000/svg">
<path d="M15.9842 15.1416L15.9918 9.61163C15.9918 6.90808 15.4081 4.82666 12.2514 4.82666C10.7307 4.82666 9.70917 5.66383 9.29442 6.45493H9.24834V5.08011H6.25293V15.1416H9.37122V10.1569C9.37122 8.84357 9.617 7.57628 11.2453 7.57628C12.8428 7.57628 12.8735 9.07399 12.8735 10.2414V15.1416H15.9842Z" fill="white"/>
<path d="M4.29492 5.08008H1.16895V15.1416H4.29492V5.08008Z" fill="white"/>
<path d="M2.72764 0.0722656C1.72917 0.0722656 0.915039 0.886402 0.915039 1.88487C0.915039 2.88334 1.72917 3.71283 2.72764 3.71283C3.72611 3.71283 4.54025 2.88334 4.54025 1.88487C4.54025 0.886402 3.72611 0.0722656 2.72764 0.0722656Z" fill="white"/>
</svg>
