<svg width="152" height="49" viewBox="0 0 152 49" fill="none" xmlns="http://www.w3.org/2000/svg">
<path d="M77.694 8.82007C78.0225 8.82007 78.1695 8.96838 78.1695 9.27372V11.7339C78.1695 12.0305 78.0225 12.1788 77.694 12.1788H66.7146V18.8877H76.7517C77.0456 18.8877 77.1926 19.036 77.1926 19.3326V21.6968C77.1926 21.9935 77.0456 22.1418 76.7517 22.1418H66.7146V28.3708H77.7026C78.0312 28.3708 78.1781 28.5191 78.1781 28.8157V31.2759C78.1781 31.5725 78.0312 31.7208 77.7026 31.7208H63.3257C63.0317 31.7208 62.8848 31.5725 62.8848 31.2759V9.27372C62.8848 8.9771 63.0317 8.82007 63.3257 8.82007H77.694Z" fill="#0A374E"/>
<path d="M94.2931 8.82007C94.587 8.82007 94.734 8.96838 94.734 9.27372V20.4493C94.734 24.916 94.0769 27.9433 92.7715 29.5311C91.4661 31.1189 88.9417 31.8953 85.1983 31.8953C83.6249 31.8953 82.0774 31.7732 80.599 31.5376C80.21 31.4766 80.0371 31.2672 80.0371 30.9095V28.9902C80.0371 28.6936 80.1841 28.5365 80.4867 28.5365H85.2069C87.5498 28.5365 89.0973 27.9956 89.8408 26.8877C90.5843 25.7797 90.9387 23.651 90.9128 20.4493V12.1788H84.1436C83.8496 12.1788 83.7027 12.0305 83.7027 11.7339V9.27372C83.7027 8.9771 83.8496 8.82007 84.1436 8.82007H94.2931Z" fill="#0A374E"/>
<path d="M113.909 8.82007C114.237 8.82007 114.384 8.96838 114.384 9.27372V11.7339C114.384 12.0305 114.237 12.1788 113.909 12.1788H102.921V18.8877H112.958C113.252 18.8877 113.399 19.036 113.399 19.3326V21.6968C113.399 21.9935 113.252 22.1418 112.958 22.1418H102.921V28.3708H113.909C114.237 28.3708 114.384 28.5191 114.384 28.8157V31.2759C114.384 31.5725 114.237 31.7208 113.909 31.7208H99.5405C99.2466 31.7208 99.0996 31.5725 99.0996 31.2759V9.27372C99.0996 8.9771 99.2466 8.82007 99.5405 8.82007H113.909Z" fill="#0A374E"/>
<path d="M132.288 9.0295C132.677 9.09057 132.85 9.29994 132.85 9.65763V11.542C132.85 11.8736 132.703 12.0219 132.4 12.0219H126.608C124.352 12.0219 122.865 12.5889 122.182 13.6969C121.499 14.8049 121.17 16.9946 121.17 20.2574C121.17 23.5551 121.499 25.771 122.182 26.879C122.865 27.987 124.352 28.5279 126.608 28.5279H132.4C132.694 28.5279 132.85 28.6762 132.85 28.9815V30.8659C132.85 31.2585 132.668 31.4679 132.288 31.529C130.836 31.7645 128.934 31.8866 126.617 31.8866C122.848 31.8866 120.652 31.2585 119.191 29.4264C117.764 27.542 117.323 24.8986 117.323 20.2574C117.323 15.6162 117.764 12.9466 119.191 11.1233C120.643 9.23888 122.813 8.66309 126.617 8.66309C129.107 8.67181 131.009 8.79395 132.288 9.0295Z" fill="#0A374E"/>
<path d="M151.55 8.82007C151.844 8.82007 151.991 8.96838 151.991 9.27372V11.7339C151.991 12.0305 151.844 12.1788 151.55 12.1788H145.049V31.2933C145.049 31.59 144.902 31.7383 144.599 31.7383H141.686C141.392 31.7383 141.245 31.59 141.245 31.2933V12.1788H134.77C134.476 12.1788 134.32 12.0305 134.32 11.7339V9.27372C134.32 8.9771 134.467 8.82007 134.77 8.82007H151.55Z" fill="#0A374E"/>
<path d="M53.3063 40.3403H0V48.0088H53.3063V40.3403Z" fill="#003D73"/>
<path d="M27.2754 0V16H38.981L27.2754 0Z" fill="#0995DB"/>
<path d="M39.5944 34.5474V18.5562L27.8975 34.5474H39.5944Z" fill="#0995DB"/>
<path d="M13.7021 18.5388V34.5475H25.4164L13.7021 18.5388Z" fill="#FFCC01"/>
<path d="M52.5541 34.5475L40.8398 18.5388V34.5475H52.5541Z" fill="#0678BE"/>
<path d="M26.0308 0L14.3252 16H26.0308V0Z" fill="#FFCC01"/>
<path d="M0.751953 34.5474H12.4576V18.5474L0.751953 34.5474Z" fill="#FF9E16"/>
<path d="M38.9896 17.2649H27.2754V33.2823L38.9896 17.2649Z" fill="#0678BE"/>
<path d="M26.0308 17.2649H14.3252L26.0308 33.2649V17.2649Z" fill="#FF9E16"/>
</svg>
