<svg width="171" height="52" viewBox="0 0 171 52" fill="none" xmlns="http://www.w3.org/2000/svg">
<path d="M87.4027 9.4541C87.7722 9.4541 87.9375 9.61307 87.9375 9.94036V12.5774C87.9375 12.8953 87.7722 13.0543 87.4027 13.0543H75.0551V20.2454H86.343C86.6735 20.2454 86.8388 20.4043 86.8388 20.7223V23.2564C86.8388 23.5744 86.6735 23.7334 86.343 23.7334H75.0551V30.4101H87.4125C87.7819 30.4101 87.9472 30.5691 87.9472 30.887V33.524C87.9472 33.842 87.7819 34.0009 87.4125 34.0009H71.2439C70.9133 34.0009 70.748 33.842 70.748 33.524V9.94036C70.748 9.62242 70.9133 9.4541 71.2439 9.4541H87.4027Z" fill="#F4F6FB"/>
<path d="M106.07 9.4541C106.4 9.4541 106.565 9.61307 106.565 9.94036V21.9192C106.565 26.707 105.826 29.9519 104.358 31.6538C102.89 33.3557 100.051 34.188 95.8414 34.188C94.0719 34.188 92.3316 34.0571 90.6691 33.8046C90.2316 33.7391 90.0371 33.5147 90.0371 33.1313V31.074C90.0371 30.7561 90.2024 30.5878 90.5427 30.5878H95.8512C98.486 30.5878 100.226 30.008 101.062 28.8204C101.899 27.6328 102.297 25.3511 102.268 21.9192V13.0543H94.6553C94.3247 13.0543 94.1594 12.8953 94.1594 12.5774V9.94036C94.1594 9.62242 94.3247 9.4541 94.6553 9.4541H106.07Z" fill="#F4F6FB"/>
<path d="M128.13 9.4541C128.5 9.4541 128.665 9.61307 128.665 9.94036V12.5774C128.665 12.8953 128.5 13.0543 128.13 13.0543H115.773V20.2454H127.061C127.391 20.2454 127.557 20.4043 127.557 20.7223V23.2564C127.557 23.5744 127.391 23.7334 127.061 23.7334H115.773V30.4101H128.13C128.5 30.4101 128.665 30.5691 128.665 30.887V33.524C128.665 33.842 128.5 34.0009 128.13 34.0009H111.971C111.641 34.0009 111.476 33.842 111.476 33.524V9.94036C111.476 9.62242 111.641 9.4541 111.971 9.4541H128.13Z" fill="#F4F6FB"/>
<path d="M148.8 9.67839C149.238 9.74385 149.432 9.96828 149.432 10.3517V12.3715C149.432 12.7269 149.267 12.8858 148.927 12.8858H142.413C139.875 12.8858 138.203 13.4937 137.435 14.6813C136.667 15.8689 136.297 18.216 136.297 21.7134C136.297 25.2481 136.667 27.6233 137.435 28.8109C138.203 29.9985 139.875 30.5783 142.413 30.5783H148.927C149.257 30.5783 149.432 30.7372 149.432 31.0645V33.0844C149.432 33.5052 149.228 33.7296 148.8 33.7951C147.167 34.0476 145.028 34.1785 142.422 34.1785C138.183 34.1785 135.714 33.5052 134.071 31.5414C132.467 29.5216 131.971 26.6882 131.971 21.7134C131.971 16.7385 132.467 13.8771 134.071 11.9227C135.704 9.90282 138.145 9.28564 142.422 9.28564C145.222 9.295 147.361 9.42591 148.8 9.67839Z" fill="#F4F6FB"/>
<path d="M170.463 9.4541C170.794 9.4541 170.959 9.61307 170.959 9.94036V12.5774C170.959 12.8953 170.794 13.0543 170.463 13.0543H163.152V33.5427C163.152 33.8607 162.986 34.0197 162.646 34.0197H159.37C159.039 34.0197 158.874 33.8607 158.874 33.5427V13.0543H151.592C151.261 13.0543 151.086 12.8953 151.086 12.5774V9.94036C151.086 9.62242 151.251 9.4541 151.592 9.4541H170.463Z" fill="#F4F6FB"/>
<path d="M59.9757 43.2397H0.0263672V51.4594H59.9757V43.2397Z" fill="#F4F6FB"/>
<path d="M30.7002 0V17.1501H43.8645L30.7002 0Z" fill="#F4F6FB"/>
<path d="M44.5551 37.0308V19.8901L31.4004 37.0308H44.5551Z" fill="#F4F6FB"/>
<path d="M15.4365 19.8711V37.0305H28.6106L15.4365 19.8711Z" fill="#F4F6FB"/>
<path d="M59.1291 37.0305L45.9551 19.8711V37.0305H59.1291Z" fill="#F4F6FB"/>
<path d="M29.3011 0L16.1367 17.1501H29.3011V0Z" fill="#F4F6FB"/>
<path d="M0.87207 37.0305H14.0364V19.8804L0.87207 37.0305Z" fill="#F4F6FB"/>
<path d="M43.8742 18.5059H30.7002V35.6746L43.8742 18.5059Z" fill="#F4F6FB"/>
<path d="M29.3011 18.5059H16.1367L29.3011 35.6559V18.5059Z" fill="#F4F6FB"/>
</svg>
