<svg width="249" height="239" viewBox="0 0 249 239" fill="none" xmlns="http://www.w3.org/2000/svg">
<g style="mix-blend-mode:soft-light">
<path d="M-8.61795 169.814C-8.80013 169.814 -8.9823 169.713 -9.08351 169.551L-28.8596 135.291C-28.9608 135.129 -28.9608 134.926 -28.8596 134.764C-28.7584 134.602 -28.5965 134.501 -28.3941 134.501H11.1379C11.3201 134.501 11.5023 134.602 11.6035 134.764C11.7047 134.926 11.7047 135.129 11.6035 135.291L-8.17263 169.551C-8.2536 169.713 -8.43578 169.814 -8.61795 169.814ZM-27.463 135.574L-8.59771 168.255L10.2675 135.574H-27.463Z" fill="#DFF6FE"/>
<path d="M109.998 238.315C109.816 238.315 109.634 238.213 109.533 238.051L89.7566 203.791C89.6554 203.629 89.6554 203.427 89.7566 203.265C89.8578 203.103 90.0197 203.001 90.2221 203.001H129.754C129.936 203.001 130.118 203.103 130.22 203.265C130.321 203.427 130.321 203.629 130.22 203.791L110.444 238.051C110.363 238.213 110.18 238.315 109.998 238.315ZM91.133 204.075L109.998 236.756L128.864 204.075H91.133Z" fill="#DFF6FE"/>
<path d="M189.082 238.314H149.55C149.368 238.314 149.186 238.213 149.085 238.051C148.983 237.889 148.983 237.687 149.085 237.525L168.861 203.264C169.043 202.94 169.589 202.94 169.772 203.264L189.548 237.525C189.649 237.687 189.649 237.889 189.548 238.051C189.426 238.213 189.264 238.314 189.082 238.314ZM150.441 237.262H188.151L169.286 204.581L150.441 237.262Z" fill="#FF9E16"/>
<path d="M50.6899 67.0537C50.5077 67.0537 50.3256 66.9525 50.2244 66.7905L30.4685 32.5504C30.3673 32.3884 30.3673 32.186 30.4685 32.024C30.5697 31.862 30.7316 31.7607 30.934 31.7607H70.4661C70.6482 31.7607 70.8304 31.862 70.9316 32.024C71.0328 32.186 71.0328 32.3884 70.9316 32.5504L51.1555 66.8107C51.0543 66.9525 50.8721 67.0537 50.6899 67.0537ZM31.8449 32.8137L50.7102 65.4946L69.5754 32.8137H31.8449Z" fill="#FF9E16"/>
<path d="M189.082 101.314H149.55C149.368 101.314 149.186 101.213 149.085 101.051C148.983 100.889 148.983 100.686 149.085 100.524L168.861 66.264C169.043 65.94 169.589 65.94 169.772 66.264L189.548 100.524C189.649 100.686 189.649 100.889 189.548 101.051C189.426 101.213 189.264 101.314 189.082 101.314ZM150.441 100.261H188.151L169.286 67.5801L150.441 100.261Z" fill="#DFF6FE"/>
<path d="M70.4658 32.8135H30.9135C30.7314 32.8135 30.5492 32.7122 30.448 32.5502C30.3468 32.3882 30.3468 32.1858 30.448 32.0238L50.2241 -2.23651C50.4063 -2.56049 50.9528 -2.56049 51.135 -2.23651L70.9111 32.0238C71.0123 32.1858 71.0123 32.3882 70.9111 32.5502C70.8301 32.7122 70.648 32.8135 70.4658 32.8135ZM31.8447 31.7605H69.5549L50.6897 -0.920363L31.8447 31.7605Z" fill="#FFDD17"/>
<path d="M228.614 101.314H189.082C188.9 101.314 188.718 101.213 188.617 101.051C188.516 100.889 188.516 100.686 188.617 100.524L208.393 66.264C208.575 65.94 209.122 65.94 209.304 66.264L229.08 100.524C229.181 100.686 229.181 100.889 229.08 101.051C228.979 101.213 228.797 101.314 228.614 101.314ZM189.993 100.261H227.704L208.838 67.5801L189.993 100.261Z" fill="#FFDD17"/>
<path d="M228.614 169.814C228.432 169.814 228.25 169.713 228.149 169.551L208.373 135.291C208.272 135.129 208.272 134.926 208.373 134.764C208.474 134.602 208.636 134.501 208.838 134.501H248.37C248.552 134.501 248.735 134.602 248.836 134.764C248.937 134.926 248.937 135.129 248.836 135.291L229.06 169.551C228.979 169.713 228.797 169.814 228.614 169.814ZM209.749 135.574L228.614 168.255L247.48 135.574H209.749Z" fill="#FFDD17"/>
<path d="M109.998 32.8137C109.815 32.8137 109.633 32.7124 109.532 32.5504L89.7761 -1.70983C89.6749 -1.87181 89.6749 -2.0743 89.7761 -2.23629C89.8773 -2.39828 90.0393 -2.49951 90.2417 -2.49951H129.774C129.956 -2.49951 130.138 -2.39828 130.239 -2.23629C130.34 -2.0743 130.34 -1.87181 130.239 -1.70983L110.463 32.5504C110.362 32.7124 110.18 32.8137 109.998 32.8137ZM91.1323 -1.4466L109.998 31.2343L128.863 -1.4466H91.1323Z" fill="#DFF6FE"/>
<path d="M189.082 32.8135H149.55C149.368 32.8135 149.186 32.7122 149.085 32.5502C148.983 32.3882 148.983 32.1858 149.085 32.0238L168.861 -2.23651C169.043 -2.56049 169.589 -2.56049 169.772 -2.23651L189.548 32.0238C189.649 32.1858 189.649 32.3882 189.548 32.5502C189.426 32.7122 189.264 32.8135 189.082 32.8135ZM150.441 31.7605H188.151L169.286 -0.920363L150.441 31.7605Z" fill="#FFDD17"/>
<path d="M228.614 32.8137C228.432 32.8137 228.25 32.7124 228.149 32.5504L208.373 -1.70983C208.272 -1.87181 208.272 -2.0743 208.373 -2.23629C208.474 -2.39828 208.636 -2.49951 208.838 -2.49951H248.37C248.552 -2.49951 248.735 -2.39828 248.836 -2.23629C248.937 -2.0743 248.937 -1.87181 248.836 -1.70983L229.06 32.5504C228.979 32.7124 228.797 32.8137 228.614 32.8137ZM209.749 -1.4466L228.614 31.2343L247.48 -1.4466H209.749Z" fill="#DFF6FE"/>
</g>
</svg>
