<svg width="323" height="312" viewBox="0 0 323 312" fill="none" xmlns="http://www.w3.org/2000/svg">
<g id="triangles">
<path id="t19" d="M300.646 312H260.771C260.587 312 260.403 311.898 260.301 311.735C260.199 311.571 260.199 311.367 260.301 311.203L280.249 276.646C280.433 276.319 280.984 276.319 281.168 276.646L301.116 311.203C301.218 311.367 301.218 311.571 301.116 311.735C300.993 311.898 300.83 312 300.646 312ZM261.669 310.938H299.707L280.678 277.973L261.669 310.938Z" fill="#FF9E16"/>
<path id="t18" d="M220.875 312C220.691 312 220.507 311.898 220.405 311.735L200.457 277.177C200.355 277.014 200.355 276.809 200.457 276.646C200.56 276.482 200.723 276.38 200.927 276.38H240.802C240.986 276.38 241.17 276.482 241.272 276.646C241.374 276.809 241.374 277.014 241.272 277.177L221.324 311.735C221.242 311.898 221.059 312 220.875 312ZM201.846 277.463L220.875 310.427L239.904 277.463H201.846Z" fill="#DFF6FE"/>
<path id="t17" d="M101.229 312H61.3538C61.17 312 60.9863 311.898 60.8842 311.735C60.7821 311.571 60.7821 311.367 60.8842 311.203L80.832 276.646C81.0158 276.319 81.567 276.319 81.7508 276.646L101.699 311.203C101.801 311.367 101.801 311.571 101.699 311.735C101.597 311.898 101.413 312 101.229 312ZM62.2726 310.938H100.31L81.2812 277.973L62.2726 310.938Z" fill="#FF9E16"/>
<path id="t16" d="M340.521 242.905C340.338 242.905 340.154 242.803 340.052 242.639L320.104 208.082C320.002 207.918 320.002 207.714 320.104 207.551C320.206 207.387 320.369 207.285 320.574 207.285H360.449C360.632 207.285 360.816 207.387 360.918 207.551C361.02 207.714 361.02 207.918 360.918 208.082L340.97 242.639C340.889 242.803 340.705 242.905 340.521 242.905ZM321.492 208.368L340.521 241.332L359.55 208.368H321.492Z" fill="#FFDD17"/>
<path id="t15" d="M101.228 242.905C101.045 242.905 100.861 242.803 100.759 242.639L80.8109 208.082C80.7089 207.918 80.7089 207.714 80.8109 207.551C80.913 207.387 81.0764 207.285 81.2805 207.285H121.156C121.34 207.285 121.523 207.387 121.625 207.551C121.727 207.714 121.727 207.918 121.625 208.082L101.678 242.639C101.596 242.803 101.412 242.905 101.228 242.905ZM82.2197 208.368L101.249 241.332L120.278 208.368H82.2197Z" fill="#DFF6FE"/>
<path id="t14" d="M101.229 242.905H61.3538C61.17 242.905 60.9863 242.803 60.8842 242.64C60.7821 242.476 60.7821 242.272 60.8842 242.108L80.832 207.551C81.0158 207.224 81.567 207.224 81.7508 207.551L101.699 242.108C101.801 242.272 101.801 242.476 101.699 242.64C101.597 242.803 101.413 242.905 101.229 242.905ZM62.2726 241.843H100.31L81.2812 208.878L62.2726 241.843Z" fill="#FFCC01"/>
<path id="t13" d="M340.521 173.81H300.646C300.462 173.81 300.278 173.708 300.176 173.544C300.074 173.381 300.074 173.177 300.176 173.013L320.124 138.456C320.308 138.129 320.859 138.129 321.043 138.456L340.991 173.013C341.093 173.177 341.093 173.381 340.991 173.544C340.889 173.708 340.705 173.81 340.521 173.81ZM301.565 172.748H339.602L320.573 139.783L301.565 172.748Z" fill="#FFDD17"/>
<path id="t12" d="M300.646 173.81H260.771C260.587 173.81 260.403 173.708 260.301 173.544C260.199 173.381 260.199 173.177 260.301 173.013L280.249 138.456C280.433 138.129 280.984 138.129 281.168 138.456L301.116 173.013C301.218 173.177 301.218 173.381 301.116 173.544C300.993 173.708 300.83 173.81 300.646 173.81ZM261.669 172.748H299.707L280.678 139.783L261.669 172.748Z" fill="#DFF6FE"/>
<path id="t11" d="M161.052 139.252C160.868 139.252 160.684 139.15 160.582 138.987L140.655 104.449C140.553 104.286 140.553 104.082 140.655 103.918C140.757 103.755 140.92 103.653 141.124 103.653H181C181.183 103.653 181.367 103.755 181.469 103.918C181.571 104.082 181.571 104.286 181.469 104.449L161.521 139.007C161.419 139.15 161.235 139.252 161.052 139.252ZM142.043 104.715L161.072 137.68L180.101 104.715H142.043Z" fill="#FF9E16"/>
<path id="t10" d="M21.4784 173.81C21.2946 173.81 21.1109 173.708 21.0088 173.544L1.06094 138.987C0.958853 138.823 0.958853 138.619 1.06094 138.456C1.16303 138.292 1.32637 138.19 1.53054 138.19H41.4058C41.5895 138.19 41.7733 138.292 41.8754 138.456C41.9775 138.619 41.9775 138.823 41.8754 138.987L21.9275 173.544C21.8255 173.708 21.6621 173.81 21.4784 173.81ZM2.44933 139.252L21.4784 172.217L40.5074 139.252H2.44933Z" fill="#DFF6FE"/>
<path id="t9" d="M340.521 104.715C340.338 104.715 340.154 104.613 340.052 104.449L320.104 69.8915C320.002 69.7281 320.002 69.5239 320.104 69.3605C320.206 69.1971 320.369 69.095 320.574 69.095H360.449C360.632 69.095 360.816 69.1971 360.918 69.3605C361.02 69.5239 361.02 69.7281 360.918 69.8915L340.97 104.449C340.889 104.613 340.705 104.715 340.521 104.715ZM321.492 70.157L340.521 103.122L359.55 70.157H321.492Z" fill="#DFF6FE"/>
<path id="t8" d="M300.646 104.715H260.771C260.587 104.715 260.403 104.613 260.301 104.449C260.199 104.286 260.199 104.082 260.301 103.918L280.249 69.3606C280.433 69.0338 280.984 69.0338 281.168 69.3606L301.116 103.918C301.218 104.082 301.218 104.286 301.116 104.449C300.993 104.613 300.83 104.715 300.646 104.715ZM261.669 103.653H299.707L280.678 70.6881L261.669 103.653Z" fill="#FFDD17"/>
<path id="t7" d="M220.875 104.715C220.691 104.715 220.507 104.613 220.405 104.449L200.478 69.8915C200.376 69.7281 200.376 69.5239 200.478 69.3605C200.58 69.1971 200.743 69.095 200.948 69.095H240.823C241.007 69.095 241.19 69.1971 241.292 69.3605C241.394 69.5239 241.394 69.7281 241.292 69.8915L221.345 104.449C221.242 104.613 221.059 104.715 220.875 104.715ZM201.846 70.157L220.875 103.122L239.904 70.157H201.846Z" fill="#DFF6FE"/>
<path id="t6" d="M180.999 104.715H141.104C140.92 104.715 140.736 104.613 140.634 104.449C140.532 104.286 140.532 104.082 140.634 103.918L160.582 69.3606C160.766 69.0338 161.317 69.0338 161.501 69.3606L181.449 103.918C181.551 104.082 181.551 104.286 181.449 104.449C181.367 104.613 181.183 104.715 180.999 104.715ZM142.043 103.653H180.081L161.052 70.6881L142.043 103.653Z" fill="#FFDD17"/>
<path id="t5" d="M41.4062 139.252C41.2224 139.252 41.0387 139.15 40.9366 138.987L21.0092 104.449C20.9071 104.286 20.9071 104.082 21.0092 103.918C21.1113 103.755 21.2746 103.653 21.4788 103.653H61.354C61.5378 103.653 61.7215 103.755 61.8236 103.918C61.9257 104.082 61.9257 104.286 61.8236 104.449L41.8758 139.007C41.7737 139.15 41.6104 139.252 41.4062 139.252ZM22.3976 104.715L41.4266 137.68L60.4556 104.715H22.3976Z" fill="#FFDD17"/>
<path id="t4" d="M260.751 35.6199H220.875C220.692 35.6199 220.508 35.5178 220.406 35.3544C220.304 35.191 220.304 34.9867 220.406 34.8233L240.354 0.265598C240.537 -0.061189 241.089 -0.061189 241.272 0.265598L261.22 34.8233C261.322 34.9867 261.322 35.191 261.22 35.3544C261.118 35.5178 260.955 35.6199 260.751 35.6199ZM221.794 34.5578H259.832L240.803 1.59317L221.794 34.5578Z" fill="#FFDD17"/>
<path id="t3" d="M181 35.6198C180.816 35.6198 180.632 35.5177 180.53 35.3543L160.603 0.796544C160.501 0.63315 160.501 0.428908 160.603 0.265515C160.685 0.102121 160.868 0 161.052 0H200.927C201.111 0 201.295 0.102121 201.397 0.265515C201.499 0.428908 201.499 0.63315 201.397 0.796544L181.449 35.3543C181.367 35.5177 181.184 35.6198 181 35.6198ZM161.971 1.06206L181 34.0267L200.029 1.06206H161.971Z" fill="#DFF6FE"/>
<path id="t2" d="M41.4062 70.157C41.2224 70.157 41.0387 70.0549 40.9366 69.8915L21.0092 35.3542C20.9071 35.1908 20.9071 34.9865 21.0092 34.8231C21.1113 34.6597 21.2746 34.5576 21.4788 34.5576H61.354C61.5378 34.5576 61.7215 34.6597 61.8236 34.8231C61.9257 34.9865 61.9257 35.1908 61.8236 35.3542L41.8758 69.9119C41.7737 70.0549 41.6104 70.157 41.4062 70.157ZM22.3976 35.6197L41.4266 68.5843L60.4556 35.6197H22.3976Z" fill="#FF9E16"/>
<path id="t1" d="M61.354 35.6199H21.4788C21.295 35.6199 21.1113 35.5178 21.0092 35.3544C20.9071 35.191 20.9071 34.9867 21.0092 34.8233L40.957 0.265598C41.1408 -0.061189 41.692 -0.061189 41.8758 0.265598L61.8236 34.8233C61.9257 34.9867 61.9257 35.191 61.8236 35.3544C61.7215 35.5178 61.5378 35.6199 61.354 35.6199ZM22.3976 34.5578H60.4352L41.4062 1.59317L22.3976 34.5578Z" fill="#DFF6FE"/>
</g>
</svg>
